<?xml version="1.0" standalone="no"?><!DOCTYPE svg PUBLIC "-//W3C//DTD SVG 1.1//EN" "http://www.w3.org/Graphics/SVG/1.1/DTD/svg11.dtd"><svg t="1558611452965" class="icon" style="" viewBox="0 0 1024 1024" version="1.1" xmlns="http://www.w3.org/2000/svg" p-id="650" xmlns:xlink="http://www.w3.org/1999/xlink" width="200" height="200"><defs><style type="text/css"></style></defs><path d="M832 576c0 200.32-170.666667 298.666667-320 298.666667S192 776.32 192 576a428.8 428.8 0 0 1 42.666667-192V195.626667a30.72 30.72 0 0 1 50.773333-23.253334l84.053333 73.6A309.12 309.12 0 0 1 512 213.333333a309.12 309.12 0 0 1 142.506667 32.64l84.053333-73.6A30.72 30.72 0 0 1 789.333333 195.626667V384a428.8 428.8 0 0 1 42.666667 192z" fill="#B7B7B7" p-id="651"></path><path d="M512 885.333333c-160.213333 0-330.666667-108.373333-330.666667-309.333333a442.666667 442.666667 0 0 1 42.666667-194.346667V195.626667a41.386667 41.386667 0 0 1 68.48-31.36l78.72 68.906666A321.28 321.28 0 0 1 512 202.666667a321.28 321.28 0 0 1 140.8 30.506666l78.72-68.906666a41.386667 41.386667 0 0 1 68.48 31.36v186.026666a442.666667 442.666667 0 0 1 42.666667 194.346667c0 200.96-170.453333 309.333333-330.666667 309.333333zM245.333333 382.08a9.6 9.6 0 0 1 0 6.4 420.48 420.48 0 0 0-42.666666 187.52c0 187.093333 160 288 309.333333 288S821.333333 763.093333 821.333333 576a420.48 420.48 0 0 0-42.666666-187.52 10.666667 10.666667 0 0 1 0-6.826667V195.626667a19.84 19.84 0 0 0-10.666667-18.346667 19.2 19.2 0 0 0-21.333333 3.2l-85.333334 73.6a10.666667 10.666667 0 0 1-11.946666 1.28A301.013333 301.013333 0 0 0 512 224a301.013333 301.013333 0 0 0-137.6 32 10.666667 10.666667 0 0 1-11.946667-1.28l-84.053333-74.24a19.626667 19.626667 0 0 0-21.333333-3.2 19.84 19.84 0 0 0-11.733334 18.346667z" fill="#4D4D4D" p-id="652"></path><path d="M256 358.186667V210.133333a11.093333 11.093333 0 0 1 18.346667-8.32l98.773333 85.333334a11.093333 11.093333 0 0 1-1.493333 17.706666l-98.56 62.72a11.093333 11.093333 0 0 1-17.066667-9.386666z" fill="#FFFFFF" p-id="653"></path><path d="M320 736a192 128 0 1 0 384 0 192 128 0 1 0-384 0Z" fill="#FFFFFF" p-id="654"></path><path d="M768 358.186667V210.133333a11.093333 11.093333 0 0 0-18.346667-8.32l-98.773333 85.333334a11.093333 11.093333 0 0 0 1.493333 17.706666l98.56 61.653334a11.093333 11.093333 0 0 0 17.066667-8.32z" fill="#FFFFFF" p-id="655"></path><path d="M490.666667 400a90.666667 21.333333 90 1 0 42.666666 0 90.666667 21.333333 90 1 0-42.666666 0Z" fill="#FFFFFF" p-id="656"></path><path d="M545.918032 456.835484a21.333333 42.666667 45 1 0 60.339779-60.339779 21.333333 42.666667 45 1 0-60.339779 60.339779Z" fill="#FFFFFF" p-id="657"></path><path d="M432.940049 441.811951a42.666667 21.333333 45 1 0 30.169889-30.169889 42.666667 21.333333 45 1 0-30.169889 30.169889Z" fill="#FFFFFF" p-id="658"></path><path d="M512 562.986667s149.333333-80.64 192-134.4 64 134.4 0 161.28-192-26.88-192-26.88z" fill="#8E8E8E" p-id="659"></path><path d="M549.76 566.4S650.666667 512 679.466667 475.733333s42.666667 90.666667 0 108.8-129.706667-18.133333-129.706667-18.133333z" fill="#FFFFFF" p-id="660"></path><path d="M530.986667 562.986667s-149.333333-80.64-192-134.4-64 134.4 0 161.28 192-26.88 192-26.88z" fill="#8E8E8E" p-id="661"></path><path d="M493.226667 566.4S392.533333 512 363.733333 475.733333s-42.666667 90.666667 0 108.8 129.493333-18.133333 129.493334-18.133333z" fill="#FFFFFF" p-id="662"></path><path d="M448 672a64 42.666667 0 1 0 128 0 64 42.666667 0 1 0-128 0Z" fill="#262626" p-id="663"></path><path d="M426.666667 554.666667m-21.333334 0a21.333333 21.333333 0 1 0 42.666667 0 21.333333 21.333333 0 1 0-42.666667 0Z" fill="#545454" p-id="664"></path><path d="M618.666667 554.666667m-21.333334 0a21.333333 21.333333 0 1 0 42.666667 0 21.333333 21.333333 0 1 0-42.666667 0Z" fill="#545454" p-id="665"></path><path d="M618.666667 540.373333m-7.04 0a7.04 7.04 0 1 0 14.08 0 7.04 7.04 0 1 0-14.08 0Z" fill="#FFFFFF" p-id="666"></path><path d="M426.666667 561.706667m-7.04 0a7.04 7.04 0 1 0 14.08 0 7.04 7.04 0 1 0-14.08 0Z" fill="#FFFFFF" p-id="667"></path><path d="M544 650.666667m-10.666667 0a10.666667 10.666667 0 1 0 21.333334 0 10.666667 10.666667 0 1 0-21.333334 0Z" fill="#FFFFFF" p-id="668"></path><path d="M512 832c-79.146667 0-85.333333-49.066667-85.333333-64a10.666667 10.666667 0 0 1 21.333333 0c0 27.52 22.826667 42.666667 64 42.666667s64-15.146667 64-42.666667a10.666667 10.666667 0 0 1 21.333333 0c0 14.933333-6.186667 64-85.333333 64z" fill="#4D4D4D" p-id="669"></path></svg>